<svg xmlns="http://www.w3.org/2000/svg" viewBox="0 0 1600 1000" role="img" aria-label="Benjamin arriving at NASA">
  <rect width="1600" height="1000" fill="#8fd7ff"/>
  <circle cx="1340" cy="145" r="90" fill="#ffda4f"/>
  <path d="M0 760 C240 685 520 785 820 700 C1120 615 1320 730 1600 635 L1600 1000 L0 1000 Z" fill="#b8c8d8"/>
  <rect x="140" y="350" width="600" height="330" rx="10" fill="#eef4fb"/>
  <rect x="205" y="420" width="470" height="70" fill="#61b8f8"/>
  <rect x="210" y="555" width="100" height="125" fill="#8aa8bf"/>
  <rect x="365" y="555" width="100" height="125" fill="#8aa8bf"/>
  <rect x="520" y="555" width="100" height="125" fill="#8aa8bf"/>
  <text x="440" y="640" text-anchor="middle" font-family="Arial, sans-serif" font-size="116" font-weight="900" fill="#173b72">NASA</text>
  <g transform="translate(1050 260)">
    <path d="M85 0 C160 112 168 275 122 420 L48 420 C2 275 10 112 85 0 Z" fill="#ffffff"/>
    <path d="M48 420 L18 520 L85 470 L152 520 L122 420 Z" fill="#f25f5c"/>
    <circle cx="85" cy="158" r="52" fill="#86dcff"/>
    <path d="M33 460 C10 520 160 520 137 460" fill="#ffcf3f"/>
  </g>
  <g transform="translate(770 705)">
    <circle cx="0" cy="-126" r="58" fill="#9c6748"/>
    <path d="M-55 -164 C-18 -222 44 -214 64 -156 C26 -176 -18 -174 -55 -164 Z" fill="#243653"/>
    <path d="M-62 -58 Q0 -148 64 -58 L50 78 L-50 78 Z" fill="#ffcf3f"/>
    <path d="M-48 86 L-92 205" stroke="#263b63" stroke-width="30" stroke-linecap="round"/>
    <path d="M48 86 L92 205" stroke="#263b63" stroke-width="30" stroke-linecap="round"/>
    <path d="M-62 -35 L-150 12" stroke="#9c6748" stroke-width="24" stroke-linecap="round"/>
    <path d="M64 -35 L150 -96" stroke="#9c6748" stroke-width="24" stroke-linecap="round"/>
  </g>
</svg>
