<svg xmlns="http://www.w3.org/2000/svg" viewBox="0 0 1600 1000" role="img" aria-label="Papai e crianca no kayak em Vancouver">
  <rect width="1600" height="1000" fill="#bcefff"/>
  <circle cx="1320" cy="135" r="88" fill="#ffd95a"/>
  <path d="M0 510 L190 300 L360 510 Z" fill="#7fa0af"/>
  <path d="M300 520 L575 210 L880 520 Z" fill="#6f93a8"/>
  <path d="M820 520 L1060 280 L1300 520 Z" fill="#86aabd"/>
  <rect y="560" width="1600" height="440" fill="#2e96bd"/>
  <path d="M160 720 C400 655 610 780 840 715 C1080 648 1300 780 1600 695" fill="none" stroke="#8bd6ef" stroke-width="28" stroke-linecap="round"/>
  <path d="M370 640 C545 790 1010 790 1185 640 C1010 915 545 915 370 640 Z" fill="#ffcf3f"/>
  <path d="M470 642 C630 710 925 710 1085 642" fill="none" stroke="#183048" stroke-width="16" stroke-linecap="round"/>
  <g transform="translate(670 615)">
    <circle cx="0" cy="-95" r="48" fill="#9d6849"/>
    <path d="M-55 -35 Q0 -105 58 -35 L48 90 L-48 90 Z" fill="#6fc7ff"/>
  </g>
  <g transform="translate(880 615)">
    <circle cx="0" cy="-105" r="55" fill="#9d6849"/>
    <path d="M-54 -135 C-18 -190 45 -184 66 -130 C24 -148 -18 -150 -54 -135 Z" fill="#263653"/>
    <path d="M-64 -38 Q0 -112 68 -38 L54 100 L-54 100 Z" fill="#ff6868"/>
  </g>
</svg>
