<svg xmlns="http://www.w3.org/2000/svg" viewBox="0 0 1024 1024" role="img" aria-label="Ayrton ao lado de um carro de corrida simples em uma garagem pequena."><defs>
<linearGradient id="sky" x1="0" y1="0" x2="0" y2="1"><stop offset="0" stop-color="#bfeaff"/><stop offset=".48" stop-color="#fff1c8"/><stop offset="1" stop-color="#ffe0b9"/></linearGradient>
<linearGradient id="grass" x1="0" y1="0" x2="0" y2="1"><stop offset="0" stop-color="#a8e27d"/><stop offset="1" stop-color="#52b868"/></linearGradient>
<radialGradient id="glow" cx="50%" cy="38%" r="62%"><stop offset="0" stop-color="#fffbe6" stop-opacity=".95"/><stop offset="1" stop-color="#fffbe6" stop-opacity="0"/></radialGradient>
<filter id="soft" x="-20%" y="-20%" width="140%" height="140%"><feDropShadow dx="0" dy="14" stdDeviation="14" flood-color="#17324d" flood-opacity=".22"/></filter>
<filter id="tinyShadow" x="-20%" y="-20%" width="140%" height="140%"><feDropShadow dx="0" dy="7" stdDeviation="7" flood-color="#17324d" flood-opacity=".18"/></filter>
</defs><rect width="1024" height="1024" fill="#e9f0f4"/><rect x="80" y="145" width="864" height="590" rx="42" fill="#f7e7bf"/><rect x="140" y="225" width="744" height="395" rx="30" fill="#fff5d9"/><rect x="0" y="720" width="1024" height="304" fill="#d8e1e7"/><g transform="translate(575 705) scale(1)" filter="url(#soft)"><ellipse cx="0" cy="82" rx="315" ry="56" fill="#172d43" opacity=".19"/><path d="M-312 20 C-210 -82 92 -100 312 14 C250 82 -220 92 -312 20Z" fill="#9bdcef"/><path d="M-70 -78 h145 c52 0 92 31 120 70 h-345 c40-48 78-70 80-70Z" fill="#183048" opacity=".92"/><circle cx="-195" cy="76" r="64" fill="#16212d"/><circle cx="205" cy="76" r="64" fill="#16212d"/><circle cx="-195" cy="76" r="27" fill="#dfe8ee"/><circle cx="205" cy="76" r="27" fill="#dfe8ee"/><path d="M-260 18 h-90" stroke="#183048" stroke-width="30" stroke-linecap="round"/><path d="M255 8 h110" stroke="#183048" stroke-width="27" stroke-linecap="round"/><circle cx="-115" cy="-32" r="10" fill="#fff" opacity=".5"/></g><g transform="translate(275 620) scale(0.85)" filter="url(#soft)"><g transform="translate(0 -116) scale(0.42)"><ellipse cx="0" cy="0" rx="150" ry="122" fill="#f9c800" stroke="#17324d" stroke-width="13"/><path d="M-132 -25 C-50 -92 72 -84 134 -8" fill="none" stroke="#009645" stroke-width="25"/><path d="M-122 44 C-42 95 80 82 128 15" fill="none" stroke="#0047bb" stroke-width="23"/><rect x="-50" y="-26" width="160" height="50" rx="20" fill="#172d43"/><circle cx="-42" cy="-48" r="12" fill="#fff" opacity=".35"/></g><rect x="-58" y="-58" width="116" height="150" rx="42" fill="#2f80d8"/><circle cx="-28" cy="-7" r="8" fill="#fff" opacity=".75"/><circle cx="28" cy="-7" r="8" fill="#fff" opacity=".75"/><path d="M-48 -16 l-84 72" stroke="#b56d43" stroke-width="25" stroke-linecap="round"/><path d="M48 -16 l84 72" stroke="#b56d43" stroke-width="25" stroke-linecap="round"/><path d="M-30 86 l-35 95" stroke="#27384b" stroke-width="26" stroke-linecap="round"/><path d="M30 86 l35 95" stroke="#27384b" stroke-width="26" stroke-linecap="round"/></g></svg>